# xmcd
#
# Track frame offsets:
#       150
#       17550
#       36610
#       57297
#       68855
#       86542
#       99765
#       118120
#       132440
#       152515
#       166680
#       187605
#       202567
#
# Disc length: 2962 seconds
#
# Revision: 1
# Processed by: cddbd v1.5.2PL0 Copyright (c) Steve Scherf et al.
# Submitted via: MusiCat 1.1
#
DISCID=970b900d
DTITLE=Michael Buble - Michael Buble
DYEAR=1900
DGENRE=
TTITLE0=Fever
TTITLE1=moondance
TTITLE2=kissing a fool
TTITLE3=for once in my life
TTITLE4=how can you mend a broken heart
TTITLE5=summer wind
TTITLE6=you'll never find another love like mine
TTITLE7=crazy little thing called love
TTITLE8=put your head on my shoulder
TTITLE9=sway
TTITLE10=the way you look tonight
TTITLE11=come fly with me
TTITLE12=thats all
EXTD=\n\n
EXTT0=
EXTT1=
EXTT2=
EXTT3=
EXTT4=
EXTT5=
EXTT6=
EXTT7=
EXTT8=
EXTT9=
EXTT10=
EXTT11=
EXTT12=
PLAYORDER=
